<svg xmlns="http://www.w3.org/2000/svg" viewBox="0 0 512 512">
  <g fill="#ffffff">
    <circle cx="256" cy="256" r="220" fill-opacity="0.08"/>
    <path d="M122 254c0-74.4 60.6-135 135-135s135 60.6 135 135-60.6 135-135 135-135-60.6-135-135zm135-105c-58 0-105 47-105 105s47 105 105 105 105-47 105-105-47-105-105-105z"/>
    <path d="M246 96h20v60h-20zm0 260h20v60h-20zM96 246h60v20H96zm260 0h60v20h-60z"/>
    <path d="m177 177 14.1-14.1 42.4 42.4-14.1 14.1zM278.5 277.5l42.4 42.4-14.1 14.1-42.4-42.4zm101-114.7L393.5 177l-42.4 42.4-14.1-14.1zm-171 171 14.1 14.1-42.4 42.4-14.1-14.1zM196 256c0-33.1 26.9-60 60-60s60 26.9 60 60-26.9 60-60 60-60-26.9-60-60zm60-30c-16.5 0-30 13.5-30 30s13.5 30 30 30 30-13.5 30-30-13.5-30-30-30z"/>
  </g>
</svg>
