<?xml version="1.0" standalone="no"?>
<!DOCTYPE svg PUBLIC "-//W3C//DTD SVG 20010904//EN"
 "http://www.w3.org/TR/2001/REC-SVG-20010904/DTD/svg10.dtd">
<svg version="1.0" xmlns="http://www.w3.org/2000/svg"
 width="294.000000pt" height="310.000000pt" viewBox="0 0 294.000000 310.000000"
 preserveAspectRatio="xMidYMid meet">

<g transform="translate(0.000000,310.000000) scale(0.100000,-0.100000)"
fill="#000000" stroke="none">
<path d="M1363 2827 c-130 -74 -298 -147 -390 -168 -26 -6 -73 -17 -104 -25
-128 -32 -412 -14 -575 37 -103 32 -137 22 -79 -24 19 -15 38 -27 42 -27 5 0
24 -13 43 -29 l34 -28 -24 -13 c-14 -7 -27 -16 -30 -19 -3 -4 -32 -24 -65 -45
-33 -21 -72 -47 -87 -57 -15 -11 -30 -19 -33 -19 -10 0 -75 -54 -75 -62 0 -12
38 -9 89 7 72 23 262 73 306 81 22 4 58 14 80 22 31 11 96 15 275 17 221 2
240 4 320 28 119 36 166 54 234 88 64 32 101 36 125 16 9 -7 43 -23 76 -36 33
-13 74 -29 90 -36 17 -7 68 -23 115 -35 75 -20 104 -22 250 -20 258 5 295 3
363 -19 63 -21 277 -76 355 -92 23 -5 51 -13 61 -19 23 -12 71 -14 71 -2 0 4
-8 12 -19 17 -37 20 -297 195 -314 211 -9 10 -17 21 -17 25 0 4 23 22 50 40
28 18 50 38 50 46 0 7 7 13 17 13 9 0 13 3 10 7 -8 7 -67 -9 -139 -38 -26 -11
-60 -19 -76 -19 -16 0 -49 -7 -73 -16 -62 -22 -348 -22 -401 0 -21 9 -46 16
-56 16 -55 0 -245 76 -363 146 -80 46 -101 51 -136 31z"/>
<path d="M1245 2475 c-38 -7 -92 -22 -120 -33 -27 -10 -63 -24 -80 -31 -215
-84 -432 -335 -491 -568 -8 -32 -19 -74 -24 -93 -19 -70 -12 -258 14 -361 21
-85 71 -207 108 -264 70 -107 133 -176 233 -252 57 -43 189 -113 214 -113 9 0
21 -4 27 -10 9 -9 120 -34 224 -50 76 -12 291 19 348 50 9 5 32 14 51 19 56
18 151 76 223 135 73 61 177 180 205 236 10 19 23 42 29 50 7 8 29 69 51 135
38 119 38 122 37 275 0 126 -4 168 -21 225 -28 94 -71 188 -126 271 -63 95
-219 243 -288 274 -13 6 -42 21 -64 33 -132 75 -369 105 -550 72z m315 -94
c145 -32 237 -77 355 -172 126 -102 205 -219 258 -387 24 -74 27 -99 27 -221
0 -117 -4 -149 -24 -217 -58 -191 -138 -309 -291 -425 -152 -116 -307 -164
-507 -157 -145 6 -222 27 -363 101 -115 60 -256 209 -314 331 -67 143 -82 209
-82 378 0 106 4 134 26 203 14 44 32 94 40 112 8 17 15 34 15 37 0 15 92 137
145 191 118 121 239 188 399 220 38 8 71 17 74 20 12 12 163 3 242 -14z"/>
<path d="M247 2047 c-21 -54 7 -423 44 -572 50 -206 97 -337 184 -507 145
-287 413 -583 687 -761 31 -20 59 -37 63 -37 4 0 37 -18 75 -40 67 -39 124
-51 145 -31 6 4 46 27 90 51 245 130 535 396 686 630 85 131 160 274 194 370
83 237 118 384 135 570 14 160 15 279 1 293 -18 18 -28 -6 -35 -82 -16 -164
-103 -470 -184 -641 -19 -41 -42 -91 -51 -110 -17 -35 -24 -47 -92 -155 -154
-243 -308 -407 -546 -584 -125 -92 -149 -100 -158 -54 -3 16 -15 64 -25 108
-11 44 -22 97 -25 118 -5 28 -11 37 -26 37 -11 0 -21 -6 -23 -13 -10 -33 -39
-158 -48 -204 -5 -28 -18 -59 -28 -68 -20 -18 -21 -18 -142 67 -123 86 -327
283 -419 403 -83 109 -162 228 -210 320 -109 207 -197 459 -244 705 -38 197
-40 205 -48 187z"/>
</g>
</svg>
