<?xml version="1.0" standalone="no"?>
<!DOCTYPE svg PUBLIC "-//W3C//DTD SVG 20010904//EN"
 "http://www.w3.org/TR/2001/REC-SVG-20010904/DTD/svg10.dtd">
<svg version="1.0" xmlns="http://www.w3.org/2000/svg"
 width="300.000000pt" height="264.000000pt" viewBox="0 0 300.000000 264.000000"
 preserveAspectRatio="xMidYMid meet">

<g transform="translate(0.000000,264.000000) scale(0.100000,-0.100000)"
fill="#000000" stroke="none">
<path d="M1285 2487 c-11 -6 -38 -17 -60 -23 -72 -21 -128 -45 -234 -96 -136
-67 -158 -86 -167 -146 -7 -52 -33 -109 -73 -162 -34 -46 -49 -69 -62 -100 -6
-14 -15 -33 -20 -42 -5 -10 -9 -30 -9 -46 0 -15 -4 -32 -10 -38 -9 -9 -39
-100 -85 -264 -20 -70 -25 -108 -25 -216 0 -95 4 -142 15 -167 8 -20 15 -48
15 -63 0 -25 10 -50 63 -164 39 -83 105 -174 174 -241 65 -64 198 -159 239
-172 10 -3 51 -18 89 -33 39 -14 111 -31 160 -38 l90 -11 3 -32 c2 -17 -3 -44
-11 -60 -8 -15 -18 -46 -22 -68 -4 -22 -10 -44 -15 -50 -4 -5 -13 -29 -19 -52
-7 -24 -20 -47 -30 -53 -45 -24 -288 50 -424 129 -173 101 -260 174 -361 306
-82 106 -186 289 -186 327 0 8 -4 18 -9 24 -14 15 -21 58 -12 72 6 10 12 7 25
-12 19 -29 116 -129 162 -166 45 -37 112 -72 118 -62 3 5 -3 15 -12 24 -48 42
-192 226 -192 244 0 4 -16 32 -35 63 -39 66 -99 238 -120 348 -8 42 -20 82
-27 90 -11 13 -14 12 -25 -13 -7 -16 -12 -39 -13 -52 0 -14 -23 -45 -60 -81
l-60 -60 10 -90 c12 -106 43 -249 67 -306 55 -134 98 -225 127 -267 14 -21 37
-54 51 -75 55 -79 167 -198 250 -265 147 -118 317 -201 541 -263 124 -35 462
-34 589 1 200 55 346 120 471 210 73 51 294 266 294 285 0 7 16 31 35 55 19
23 35 48 35 54 0 7 9 23 20 37 11 14 20 34 20 44 0 9 4 19 9 21 14 4 25 58 13
58 -5 0 -15 -12 -21 -27 -11 -28 -39 -77 -54 -98 -106 -143 -216 -261 -306
-328 -67 -50 -79 -57 -156 -98 -33 -17 -64 -34 -70 -38 -13 -9 -106 -45 -169
-66 -68 -23 -257 -53 -281 -45 -13 5 -24 23 -32 51 -11 42 -25 87 -59 189 -8
25 -14 55 -14 67 0 24 12 28 130 37 58 5 128 24 240 67 61 23 192 116 260 182
58 57 150 176 150 194 0 4 6 14 14 22 7 9 31 66 52 126 l39 110 0 180 c0 145
-4 192 -18 240 -30 100 -104 240 -166 316 -72 88 -196 191 -273 227 -78 36
-80 62 -5 63 41 0 47 2 30 9 -13 5 -23 14 -23 19 0 15 -24 19 -162 31 -262 22
-558 -36 -738 -145 -63 -38 -210 -167 -222 -195 -4 -10 -7 -6 -7 13 -1 15 4
27 9 27 6 0 10 7 10 15 0 8 8 22 18 32 10 10 31 36 47 58 36 49 152 166 220
221 61 49 185 131 220 144 14 5 28 16 31 24 3 8 20 18 37 22 28 6 30 8 12 15
-27 10 -27 10 -50 -4z m331 -357 c104 -27 164 -53 247 -107 258 -168 392 -452
358 -760 -12 -112 -36 -188 -87 -282 -39 -71 -108 -164 -146 -197 -150 -128
-253 -181 -413 -209 -412 -74 -788 161 -912 569 -22 74 -24 94 -20 231 3 125
7 161 27 220 97 284 313 477 610 545 73 16 252 11 336 -10z"/>
<path d="M335 2007 c-4 -10 -1 -34 8 -55 10 -23 22 -111 32 -232 36 -440 38
-453 77 -575 28 -86 79 -187 111 -219 9 -10 17 -24 17 -32 0 -8 7 -14 15 -14
19 0 20 34 1 49 -8 7 -18 27 -22 44 -3 18 -10 37 -14 42 -18 23 -49 136 -59
215 -6 47 -16 157 -21 245 -14 225 -62 450 -105 490 -6 6 -15 21 -22 35 -10
22 -12 23 -18 7z"/>
<path d="M2615 891 c-3 -5 -1 -12 5 -16 5 -3 10 1 10 9 0 18 -6 21 -15 7z"/>
</g>
</svg>
