<?xml version="1.0" standalone="no"?>
<!DOCTYPE svg PUBLIC "-//W3C//DTD SVG 20010904//EN"
 "http://www.w3.org/TR/2001/REC-SVG-20010904/DTD/svg10.dtd">
<svg version="1.0" xmlns="http://www.w3.org/2000/svg"
 width="274.000000pt" height="258.000000pt" viewBox="0 0 274.000000 258.000000"
 preserveAspectRatio="xMidYMid meet">

<g transform="translate(0.000000,258.000000) scale(0.100000,-0.100000)"
fill="#000000" stroke="none">
<path d="M1411 2379 c-39 -152 -54 -179 -87 -154 -31 23 -48 19 -30 -7 23 -33
20 -58 -6 -59 -52 -3 -61 -5 -65 -14 -2 -6 22 -23 52 -38 57 -28 62 -35 45
-68 -16 -30 -3 -41 26 -22 22 14 27 14 35 2 20 -31 29 -89 21 -140 -6 -49 -10
-54 -35 -57 -25 -3 -40 -22 -17 -22 16 0 11 -37 -6 -44 -24 -9 -27 -8 -21 17
6 20 2 22 -28 22 -19 0 -40 -6 -47 -13 -6 -6 -20 -12 -30 -12 -10 0 -21 -7
-24 -15 -4 -8 -16 -15 -28 -15 -28 0 -53 -18 -69 -50 -8 -16 -21 -25 -35 -24
-16 0 -27 -11 -43 -43 -21 -44 -66 -78 -86 -65 -5 4 -13 20 -17 35 -8 35 -26
26 -26 -13 0 -32 -34 -116 -56 -141 -8 -9 -17 -26 -19 -39 -2 -12 -7 -25 -9
-28 -3 -2 -1 -13 5 -24 8 -15 7 -22 -7 -33 -15 -10 -20 -10 -34 4 -22 22 -82
100 -105 136 -16 25 -20 27 -23 12 -2 -10 1 -23 6 -30 5 -7 15 -30 22 -52 7
-22 18 -49 25 -60 6 -11 14 -45 18 -76 3 -31 10 -65 16 -75 18 -32 43 -136 45
-184 1 -25 6 -53 10 -62 4 -10 6 -23 4 -30 -3 -7 1 -27 9 -45 7 -18 13 -42 13
-53 0 -12 11 -45 24 -73 13 -29 27 -59 30 -67 14 -33 63 -109 93 -144 35 -39
46 -45 37 -21 -9 24 10 18 21 -7 13 -28 105 -79 151 -83 20 -2 46 -13 58 -24
24 -22 61 -28 71 -11 12 19 47 10 77 -20 16 -16 40 -30 53 -30 22 0 55 23 55
38 0 7 48 32 62 32 4 0 8 -6 8 -14 0 -7 9 -16 20 -19 22 -6 37 8 20 18 -19 12
-11 37 10 30 10 -3 32 1 47 9 16 8 51 17 78 21 28 4 61 16 74 26 13 11 32 19
42 19 25 0 113 94 139 148 62 131 63 132 51 146 -9 11 -9 16 2 23 12 7 42 91
42 118 0 6 6 16 13 23 7 8 12 41 12 80 0 46 5 75 16 91 12 16 15 36 11 67 -4
42 6 69 16 42 2 -7 8 1 11 17 4 17 19 62 33 100 31 88 40 130 24 121 -6 -4
-11 -15 -11 -24 0 -29 -118 -152 -145 -152 -28 0 -53 36 -36 53 14 14 -28 87
-50 87 -26 0 -45 29 -32 48 14 23 -4 60 -31 64 -12 2 -22 12 -24 23 -4 24
-108 125 -129 125 -8 0 -26 14 -40 30 -13 17 -31 30 -38 30 -17 0 -47 29 -40
40 2 4 -14 10 -36 14 -22 4 -51 14 -65 22 -17 12 -28 13 -37 6 -27 -23 -40 4
-41 87 -1 62 3 84 15 97 14 13 21 14 39 4 28 -15 34 -9 19 24 -15 32 4 76 32
76 24 0 49 11 49 21 0 5 -9 9 -19 9 -11 0 -23 5 -26 10 -3 6 -15 10 -26 10
-28 0 -33 23 -14 59 17 34 10 39 -21 16 -10 -8 -24 -15 -29 -15 -12 0 -35 97
-35 146 0 16 -4 35 -9 43 -7 11 -12 3 -20 -30z m12 -233 c18 -14 23 -36 8 -36
-5 0 -16 11 -25 25 -18 27 -11 32 17 11z m102 -367 c4 -11 4 -23 0 -27 -9 -9
-40 13 -43 32 -5 24 35 20 43 -5z m-44 -92 c21 -45 39 -91 39 -103 0 -13 5
-26 10 -29 13 -8 13 -65 1 -65 -16 0 -81 82 -81 102 0 30 -25 20 -38 -16 -7
-18 -21 -41 -32 -51 -11 -10 -20 -23 -20 -30 0 -7 -9 -20 -21 -31 -17 -15 -22
-16 -29 -4 -9 15 -5 49 10 85 5 11 16 45 26 75 17 56 48 125 66 147 16 20 27
7 69 -80z m-201 63 c0 -5 -20 -41 -45 -80 -25 -39 -45 -73 -45 -76 0 -3 -6
-20 -14 -37 -17 -40 -36 -118 -36 -151 0 -14 -3 -26 -7 -26 -5 0 -34 23 -65
51 -52 46 -72 81 -50 91 20 8 73 88 67 99 -5 7 -3 10 6 7 7 -2 24 8 37 24 24
28 129 106 145 107 4 1 7 -3 7 -9z m356 -29 c22 -15 52 -43 68 -62 15 -19 47
-54 70 -79 63 -68 63 -67 15 -116 -24 -24 -49 -44 -55 -44 -7 0 -25 39 -39 88
-24 77 -58 152 -103 220 -20 30 -3 28 44 -7z m-326 -36 c-7 -8 -16 -15 -21
-15 -13 0 -11 24 3 38 18 18 35 -3 18 -23z m264 18 c10 -25 -9 -37 -28 -18 -9
9 -16 21 -16 26 0 16 38 10 44 -8z m-284 -72 c0 -12 -31 -51 -41 -51 -13 0
-11 44 2 57 11 11 39 7 39 -6z m336 -26 c18 -27 5 -45 -23 -34 -16 6 -23 17
-23 34 0 31 25 31 46 0z m-376 -90 c0 -18 -37 -48 -50 -40 -15 9 19 65 37 58
7 -3 13 -11 13 -18z m-327 -37 c-10 -11 -19 -15 -21 -8 -5 15 18 41 30 34 5
-3 1 -15 -9 -26z m733 -3 c9 -23 -3 -45 -21 -39 -20 8 -20 54 0 54 9 0 18 -7
21 -15z m-489 -57 c-3 -7 -5 -2 -5 12 0 14 2 19 5 13 2 -7 2 -19 0 -25z m-277
-27 c-15 -29 -30 -35 -30 -12 0 17 11 28 33 30 4 1 3 -8 -3 -18z m338 -5 c3
-16 -22 -45 -40 -46 -13 0 -9 45 4 58 16 16 32 10 36 -12z m449 -60 c-4 -9
-11 -16 -17 -16 -15 0 -24 26 -16 47 6 15 8 15 23 1 9 -9 13 -24 10 -32z
m-459 -92 c-2 -10 -11 -20 -21 -22 -12 -3 -17 3 -17 21 0 26 18 41 33 27 5 -4
7 -16 5 -26z m-398 -26 c0 -5 -4 -8 -10 -8 -5 0 -10 10 -10 23 0 18 2 19 10 7
5 -8 10 -18 10 -22z m490 13 c0 -5 -25 -34 -56 -65 -39 -39 -54 -61 -50 -73 5
-15 -1 -18 -42 -20 -33 -1 -41 0 -27 6 11 5 34 23 50 41 17 17 45 46 64 63 19
18 39 37 45 44 13 15 16 16 16 4z m370 -22 c0 -38 -24 -35 -28 4 -2 19 1 27
12 27 11 0 16 -10 16 -31z m140 -49 c0 -5 -5 -10 -11 -10 -5 0 -7 5 -4 10 3 6
8 10 11 10 2 0 4 -4 4 -10z m-825 -10 c3 -5 1 -10 -4 -10 -6 0 -11 5 -11 10 0
6 2 10 4 10 3 0 8 -4 11 -10z m784 -45 c-21 -35 -39 -46 -39 -23 0 13 40 56
52 57 4 1 -2 -15 -13 -34z m-179 21 c0 -3 -4 -8 -10 -11 -5 -3 -10 -1 -10 4 0
6 5 11 10 11 6 0 10 -2 10 -4z m-553 -12 c-3 -3 -12 -4 -19 -1 -8 3 -5 6 6 6
11 1 17 -2 13 -5z m-140 -40 c-3 -3 -12 -4 -19 -1 -8 3 -5 6 6 6 11 1 17 -2
13 -5z m823 -14 c0 -5 -7 -10 -16 -10 -8 0 -12 5 -9 10 3 6 10 10 16 10 5 0 9
-4 9 -10z m-310 -35 c0 -8 -4 -15 -10 -15 -5 0 -10 7 -10 15 0 8 5 15 10 15 6
0 10 -7 10 -15z m-420 -40 c17 -18 21 -28 14 -35 -8 -8 -24 1 -55 31 -44 41
-44 41 -14 35 17 -4 41 -18 55 -31z m-143 -2 c-15 -16 -17 -16 -17 -1 0 9 6
18 13 21 20 7 22 -2 4 -20z m1181 -2 c3 -8 -1 -12 -9 -9 -7 2 -15 10 -17 17
-3 8 1 12 9 9 7 -2 15 -10 17 -17z m-830 -10 c3 -8 -1 -12 -9 -9 -7 2 -15 10
-17 17 -3 8 1 12 9 9 7 -2 15 -10 17 -17z m156 -28 c-6 -20 -70 -60 -81 -50
-6 6 15 44 41 75 16 18 22 20 33 10 7 -7 10 -23 7 -35z m559 40 c9 -9 -12 -33
-29 -33 -12 0 -12 4 -2 20 14 21 21 24 31 13z m-358 -28 c14 -13 25 -29 25
-34 0 -13 -83 32 -88 48 -7 21 39 11 63 -14z m245 10 c10 -12 10 -15 -3 -15
-8 0 -20 7 -27 15 -10 12 -10 15 3 15 8 0 20 -7 27 -15z m-660 -26 c0 -11 -4
-18 -10 -14 -5 3 -7 12 -3 20 7 21 13 19 13 -6z m-223 -5 c-3 -3 -12 -4 -19
-1 -8 3 -5 6 6 6 11 1 17 -2 13 -5z m821 -7 c6 -7 7 -18 3 -25 -5 -9 -11 -5
-19 13 -12 26 -2 34 16 12z m298 -2 c-8 -8 -23 -15 -33 -15 -14 1 -13 4 7 15
33 19 45 19 26 0z m-76 -25 c0 -5 -8 -10 -19 -10 -10 0 -35 -7 -55 -15 -20 -9
-42 -15 -49 -14 -7 1 -19 0 -27 -4 -8 -3 -42 -8 -75 -11 -33 -3 -116 -12 -184
-20 -99 -12 -145 -13 -230 -5 -58 6 -108 13 -110 15 -12 12 19 18 97 18 48 1
93 5 100 9 7 5 19 4 27 -3 8 -7 21 -10 28 -7 7 3 33 1 57 -3 28 -5 62 -3 94 5
28 7 89 16 136 19 47 4 108 13 135 20 62 18 75 19 75 6z m-525 -10 c-3 -5 -10
-10 -16 -10 -5 0 -9 5 -9 10 0 6 7 10 16 10 8 0 12 -4 9 -10z m-351 -15 c33
-4 69 -10 80 -15 19 -6 18 -8 -11 -14 -37 -8 -122 2 -140 16 -7 6 -19 8 -28 5
-8 -4 -17 -2 -20 3 -6 10 22 19 45 15 8 -2 42 -6 74 -10z m726 -99 c0 -3 -4
-8 -10 -11 -5 -3 -10 -1 -10 4 0 6 5 11 10 11 6 0 10 -2 10 -4z m-822 -23 c12
-24 4 -43 -17 -43 -27 0 -42 20 -30 42 12 23 36 23 47 1z m132 7 c0 -5 -8 -10
-17 -10 -15 0 -16 2 -3 10 19 12 20 12 20 0z m764 -16 c25 -24 19 -34 -19 -34
-27 0 -35 4 -35 18 0 35 28 43 54 16z m-456 -34 c12 -12 22 -27 22 -35 0 -20
-36 -37 -73 -33 -24 2 -34 9 -42 31 -8 24 -6 31 10 43 27 20 58 17 83 -6z m72
-97 c-8 -4 -20 -12 -28 -19 -7 -7 -19 -11 -28 -7 -25 9 4 33 40 32 17 0 24 -3
16 -6z m-372 -20 c-10 -2 -28 -2 -40 0 -13 2 -5 4 17 4 22 1 32 -1 23 -4z
m512 -52 c2 -1 0 -5 -5 -10 -21 -21 -167 -42 -249 -37 -104 6 -166 16 -166 26
0 5 -8 11 -17 13 -10 3 46 5 125 5 79 0 146 2 149 6 4 4 138 2 163 -3z m37 -7
c-3 -3 -12 -4 -19 -1 -8 3 -5 6 6 6 11 1 17 -2 13 -5z m-552 -40 c9 -9 14 -19
11 -21 -8 -9 -76 18 -71 28 9 14 42 11 60 -7z"/>
<path d="M1900 1590 c0 -5 5 -10 11 -10 5 0 7 5 4 10 -3 6 -8 10 -11 10 -2 0
-4 -4 -4 -10z"/>
</g>
</svg>
