<?xml version="1.0" standalone="no"?>
<!DOCTYPE svg PUBLIC "-//W3C//DTD SVG 20010904//EN"
 "http://www.w3.org/TR/2001/REC-SVG-20010904/DTD/svg10.dtd">
<svg version="1.0" xmlns="http://www.w3.org/2000/svg"
 width="1694.000000pt" height="176.000000pt" viewBox="0 0 1694.000000 176.000000"
 preserveAspectRatio="xMidYMid meet">

<g transform="translate(0.000000,176.000000) scale(0.100000,-0.100000)"
fill="#000000" stroke="none">
<path d="M8002 1543 c0 -50 -5 -100 -10 -110 -11 -22 -21 -78 -33 -193 -22
-222 -36 -310 -49 -310 -11 0 -126 178 -144 223 -9 21 -20 36 -26 32 -13 -8
-13 -52 0 -60 6 -3 10 -19 10 -36 0 -16 -4 -29 -10 -29 -5 0 -10 3 -10 8 0 4
-24 32 -53 62 -83 88 -126 140 -173 212 -56 84 -69 94 -61 44 3 -21 17 -48 29
-60 16 -14 33 -54 51 -118 15 -53 41 -136 57 -184 39 -114 38 -127 -5 -78 -19
21 -35 42 -35 47 0 4 -29 49 -64 100 -35 51 -66 100 -69 108 -3 8 -6 3 -6 -11
0 -14 8 -36 19 -50 11 -14 20 -33 20 -42 0 -9 5 -20 10 -23 6 -3 10 -14 10
-24 0 -9 11 -33 25 -52 29 -39 125 -231 125 -250 0 -7 12 -32 26 -57 21 -36
25 -50 18 -80 -5 -21 -7 -44 -6 -52 1 -8 3 -32 3 -52 0 -21 4 -51 9 -68 7 -23
5 -40 -7 -65 -25 -52 -5 -88 61 -115 93 -37 196 -57 306 -58 98 -2 104 -1 85
14 -19 15 -15 16 56 10 64 -6 328 -6 584 -1 88 1 98 3 90 14 -3 6 11 13 32 16
52 9 56 9 76 1 9 -5 25 -5 35 0 9 4 21 6 26 5 21 -5 117 23 130 38 12 14 24
110 26 216 1 10 6 25 12 32 7 9 7 21 -2 42 -12 29 -8 53 21 126 4 11 10 29 12
40 3 11 21 58 41 105 20 46 36 88 36 92 0 5 8 27 19 51 10 23 29 67 41 97 12
30 26 59 31 64 11 12 12 46 2 46 -5 0 -37 -61 -73 -134 -68 -140 -93 -169 -79
-94 21 119 29 162 43 222 9 36 23 96 32 132 8 36 13 68 10 71 -10 10 -37 -19
-52 -56 -8 -20 -46 -76 -83 -126 -37 -49 -76 -103 -86 -118 -16 -26 -20 -27
-34 -13 -13 13 -13 21 -4 47 9 24 9 35 0 50 -18 30 -25 23 -32 -33 -4 -29 -20
-80 -35 -113 -15 -33 -34 -78 -41 -99 -8 -22 -19 -41 -24 -43 -15 -5 -98 338
-125 515 -9 62 -10 86 -1 95 13 13 15 53 2 61 -4 3 -61 -99 -125 -226 -65
-127 -126 -244 -136 -258 -11 -15 -24 -39 -30 -54 -5 -14 -14 -26 -20 -26 -16
0 -60 100 -70 159 -15 89 -30 85 -34 -10 -4 -67 -19 -137 -37 -171 -9 -17 -13
-18 -24 -7 -11 12 -87 152 -203 374 -35 67 -72 172 -72 203 0 16 -9 40 -19 53
-19 23 -19 23 -19 -68z m67 -183 c10 -36 24 -92 31 -125 26 -119 116 -322 148
-333 14 -4 16 24 3 33 -5 3 -15 22 -22 43 -6 20 -27 70 -45 110 -38 82 -38 82
-23 82 5 0 21 -24 33 -52 13 -29 40 -88 60 -131 41 -88 43 -99 19 -90 -13 5
-15 2 -11 -15 6 -20 3 -19 -38 8 -53 37 -94 89 -94 120 0 22 -10 58 -33 123
-5 15 -23 42 -39 59 -28 30 -29 34 -32 149 -3 133 8 138 43 19z m685 38 c-7
-64 -27 -118 -44 -118 -5 0 -18 -10 -30 -22 -17 -18 -20 -19 -20 -5 0 10 4 25
10 35 5 9 25 52 44 95 19 42 37 77 41 77 3 0 3 -28 -1 -62z m-747 -90 c-2 -13
-4 -3 -4 22 0 25 2 35 4 23 2 -13 2 -33 0 -45z m-406 -129 c19 -23 42 -49 53
-58 43 -37 96 -92 96 -99 0 -4 13 -20 28 -37 27 -30 72 -97 72 -108 0 -20 -42
18 -126 115 -53 60 -98 107 -101 104 -3 -3 13 -33 36 -67 22 -34 41 -68 41
-75 0 -8 25 -39 55 -69 30 -29 55 -61 55 -69 0 -22 -19 -20 -27 2 -4 9 -23 31
-42 49 -28 25 -39 29 -50 20 -10 -9 -17 -6 -32 12 -11 13 -19 33 -19 45 0 12
-9 40 -19 62 -30 61 -36 95 -20 105 12 7 11 9 -1 9 -9 0 -22 16 -29 38 -8 20
-16 43 -18 50 -10 26 16 10 48 -29z m1079 -34 c0 -9 7 -18 15 -21 23 -9 39
-81 25 -113 -6 -15 -12 -57 -13 -94 -2 -79 -21 -95 -25 -22 -3 72 -12 116 -21
111 -6 -4 -8 111 -2 147 2 14 21 7 21 -8z m-94 -70 c-15 -30 -32 -55 -37 -55
-12 0 -12 0 14 51 30 60 38 71 44 65 3 -3 -7 -30 -21 -61z m221 33 c-3 -8 -6
-5 -6 6 -1 11 2 17 5 13 3 -3 4 -12 1 -19z m383 -109 c10 -24 10 -35 0 -55
-27 -49 -39 -17 -15 39 4 10 3 17 -4 17 -6 0 -11 -4 -11 -10 0 -5 -7 -10 -15
-10 -8 0 -24 -21 -36 -47 -12 -28 -23 -42 -26 -35 -6 15 13 57 37 84 8 9 21
24 28 33 19 22 28 19 42 -16z m-1163 -11 c-3 -7 -5 -2 -5 12 0 14 2 19 5 13 2
-7 2 -19 0 -25z m613 -63 c0 -25 5 -45 10 -45 16 0 12 -30 -5 -36 -8 -4 -16
-16 -17 -28 -1 -11 -4 4 -7 34 -5 48 -9 55 -26 52 -19 -4 -19 -3 3 20 12 13
22 30 22 36 0 7 5 12 10 12 6 0 10 -20 10 -45z m-500 -57 c0 -27 -4 -48 -9
-48 -14 0 -20 36 -14 81 8 53 23 31 23 -33z m-88 -20 c-9 -9 -12 -4 -11 23 0
32 1 33 11 11 8 -17 8 -26 0 -34z m1023 -5 c-4 -21 -10 -57 -14 -81 -3 -23
-10 -41 -16 -40 -12 4 -7 79 6 93 5 5 9 22 9 37 0 15 5 28 11 28 8 0 9 -12 4
-37z m-1135 -13 c8 -15 7 -18 -2 -15 -15 6 -58 -53 -73 -99 -5 -17 -18 -32
-28 -34 -17 -3 -17 -1 -6 20 6 12 15 25 18 28 3 3 13 19 21 35 17 35 50 85 55
85 3 0 9 -9 15 -20z m996 -13 c32 -37 84 -115 84 -126 0 -6 -4 -11 -9 -11 -11
0 -51 54 -51 68 0 6 -16 27 -35 48 -19 20 -35 38 -35 40 0 13 30 0 46 -19z
m-336 -36 c0 -18 -14 -20 -26 -3 -19 25 -17 34 6 22 11 -6 20 -14 20 -19z
m580 19 c0 -5 -5 -10 -11 -10 -5 0 -7 5 -4 10 3 6 8 10 11 10 2 0 4 -4 4 -10z
m-340 -30 c0 -5 -5 -10 -11 -10 -5 0 -7 5 -4 10 3 6 8 10 11 10 2 0 4 -4 4
-10z m42 -25 c-2 -14 -8 -25 -13 -25 -14 0 -11 38 4 43 6 3 13 6 13 6 1 1 -1
-10 -4 -24z m-1192 -21 c0 -3 -7 -1 -15 6 -8 7 -15 17 -15 22 0 5 7 3 15 -6 8
-8 15 -18 15 -22z m1120 23 c0 -12 -41 -49 -48 -43 -4 4 4 16 17 27 23 18 31
23 31 16z m-410 -15 c0 -10 -22 -32 -32 -32 -13 0 -9 28 5 33 19 8 27 8 27 -1z
m110 -2 c6 9 12 9 29 -1 33 -21 26 -26 -34 -27 -30 0 -55 4 -55 9 0 5 -8 9
-17 10 -12 1 -9 4 7 8 14 5 33 4 44 -2 13 -6 21 -5 26 3z m610 -4 c0 -3 -4 -8
-10 -11 -5 -3 -10 -1 -10 4 0 6 5 11 10 11 6 0 10 -2 10 -4z m-1200 -16 c0 -5
-4 -10 -10 -10 -5 0 -10 5 -10 10 0 6 5 10 10 10 6 0 10 -4 10 -10z m995 -29
c-4 -14 3 -20 34 -29 21 -7 56 -12 78 -12 23 0 46 -6 52 -14 22 -26 1 -25
-186 10 -36 7 -45 24 -13 24 15 0 20 7 20 26 0 15 4 23 10 19 6 -4 8 -15 5
-24z m-892 -11 c20 0 20 0 1 -15 -10 -8 -38 -15 -61 -15 -23 0 -52 -4 -65 -9
-14 -5 -51 -12 -84 -16 -54 -7 -58 -6 -44 9 9 9 43 21 75 27 33 6 76 14 95 18
19 5 41 7 48 5 8 -2 23 -4 35 -4z m234 4 c-3 -3 -12 -4 -19 -1 -8 3 -5 6 6 6
11 1 17 -2 13 -5z m423 -8 c30 -3 81 -5 113 -5 37 -1 56 -5 52 -11 -4 -7 -71
-9 -193 -6 -234 5 -383 16 -376 27 5 8 287 5 404 -5z m-580 -51 c0 -2 -20 -13
-43 -24 -24 -11 -50 -27 -57 -36 -7 -8 -21 -15 -31 -15 -11 0 -19 -4 -19 -10
0 -5 -9 -10 -20 -10 -11 0 -20 5 -20 10 0 6 7 10 16 10 8 0 34 12 57 28 69 44
81 51 100 51 9 1 17 -1 17 -4z m74 -30 c10 -8 16 -19 14 -26 -3 -8 -9 -7 -20
5 -9 9 -21 16 -26 16 -6 0 -12 6 -15 14 -7 16 19 12 47 -9z m-47 -25 c17 -27
-9 -55 -38 -40 -24 13 -25 36 -1 49 23 14 25 14 39 -9z m223 4 c-19 -22 -55
-41 -45 -22 16 28 28 38 42 38 13 0 13 -3 3 -16z m98 -21 c-11 -14 -40 -17
-51 -6 -4 3 0 14 9 24 13 14 20 16 35 6 13 -8 15 -15 7 -24z m62 -14 c0 -5 -6
-9 -14 -9 -15 0 -28 24 -19 34 7 7 33 -13 33 -25z m190 6 c0 -8 -4 -15 -9 -15
-13 0 -22 16 -14 24 11 11 23 6 23 -9z m-860 -5 c0 -5 -4 -10 -10 -10 -5 0
-10 -6 -10 -14 0 -15 -21 -26 -51 -26 -36 0 -16 37 27 50 40 11 44 12 44 0z
m980 -16 c0 -8 -4 -12 -10 -9 -5 3 -10 13 -10 21 0 8 5 12 10 9 6 -3 10 -13
10 -21z m-950 -2 c0 -10 -22 -32 -32 -32 -5 0 -3 9 4 20 13 20 28 27 28 12z
m584 -17 c-28 -22 -40 -18 -13 4 13 11 26 17 28 15 3 -2 -4 -11 -15 -19z m559
11 c7 -18 -1 -26 -28 -26 -21 0 -45 17 -45 32 0 14 68 9 73 -6z m-393 -16 c0
-5 -11 -10 -25 -10 -14 0 -25 5 -25 10 0 6 11 10 25 10 14 0 25 -4 25 -10z
m-181 -26 c252 -5 435 -21 474 -41 16 -8 27 -17 24 -19 -2 -3 -42 0 -88 5
-143 18 -305 25 -539 24 -194 -1 -246 -4 -377 -27 -186 -32 -211 -33 -163 -8
66 33 185 62 257 62 26 0 53 4 60 8 6 4 40 6 75 4 34 -2 159 -5 277 -8z m-462
-240 c-3 -3 -12 -4 -19 -1 -8 3 -5 6 6 6 11 1 17 -2 13 -5z"/>
<path d="M320 675 c0 -13 360 -15 3196 -15 2552 0 3195 3 3192 13 -4 9 -654
13 -3196 15 -2833 2 -3192 0 -3192 -13z"/>
<path d="M10087 683 c-4 -3 -7 -10 -7 -15 0 -4 1438 -8 3196 -8 2552 0 3195 3
3192 13 -4 9 -652 13 -3190 15 -1751 1 -3188 -1 -3191 -5z"/>
<path d="M8198 193 c7 -3 16 -2 19 1 4 3 -2 6 -13 5 -11 0 -14 -3 -6 -6z"/>
</g>
</svg>
