<?xml version="1.0" standalone="no"?>
<!DOCTYPE svg PUBLIC "-//W3C//DTD SVG 20010904//EN"
 "http://www.w3.org/TR/2001/REC-SVG-20010904/DTD/svg10.dtd">
<svg version="1.0" xmlns="http://www.w3.org/2000/svg"
 width="390.000000pt" height="294.000000pt" viewBox="0 0 390.000000 294.000000"
 preserveAspectRatio="xMidYMid meet">

<g transform="translate(0.000000,294.000000) scale(0.100000,-0.100000)"
fill="#000000" stroke="none">
<path d="M1725 2720 c-22 -5 -83 -22 -135 -40 -180 -59 -310 -153 -424 -305
-78 -102 -116 -183 -152 -315 -32 -118 -33 -314 -3 -432 51 -196 163 -370 314
-487 63 -48 75 -57 140 -91 173 -92 419 -125 607 -80 81 19 226 76 278 109
144 91 268 233 344 395 20 42 36 81 36 87 0 6 9 42 21 80 19 61 21 88 17 222
-5 170 -16 219 -80 357 -122 259 -365 447 -648 500 -56 11 -261 11 -315 0z
m315 -100 c99 -19 210 -67 295 -128 196 -141 312 -337 335 -566 6 -59 9 -121
6 -139 -21 -143 -30 -188 -37 -193 -5 -3 -9 -13 -9 -22 0 -16 -31 -81 -69
-142 -103 -169 -244 -279 -451 -352 -58 -20 -84 -23 -230 -23 -158 0 -168 1
-250 30 -165 59 -290 151 -392 288 -87 118 -133 233 -148 372 -21 199 33 414
139 555 44 60 163 180 177 180 7 0 17 6 21 13 17 28 200 107 298 130 35 8 269
6 315 -3z"/>
<path d="M473 1182 c-66 -42 -145 -93 -175 -113 -29 -19 -75 -50 -103 -67 -63
-40 -99 -71 -92 -79 5 -5 82 13 312 74 33 8 87 22 120 29 33 8 87 21 120 30
111 28 112 28 137 2 13 -14 55 -62 93 -107 77 -91 198 -192 315 -263 138 -83
342 -158 472 -173 32 -4 63 -14 69 -21 6 -8 20 -56 30 -107 10 -50 25 -121 33
-157 8 -36 23 -102 33 -148 17 -77 19 -82 44 -82 23 0 28 5 37 47 6 27 19 80
30 118 49 177 62 231 62 264 0 61 19 77 98 84 38 4 91 13 118 21 27 8 65 19
84 24 249 73 511 255 667 464 45 62 37 62 318 -8 33 -9 85 -21 115 -27 30 -7
61 -16 67 -20 11 -7 77 -23 186 -44 16 -3 27 -1 27 6 0 6 -7 11 -15 11 -9 0
-18 7 -21 15 -3 8 -27 26 -52 41 -26 15 -99 61 -162 102 -63 41 -145 95 -182
119 l-68 44 -142 -3 -143 -3 -20 -41 c-49 -100 -183 -240 -320 -332 -200 -135
-426 -202 -685 -202 -90 0 -242 21 -300 41 -19 6 -55 18 -80 27 -66 21 -195
87 -274 139 -89 60 -228 198 -296 296 l-54 77 -140 0 -141 -1 -122 -77z"/>
</g>
</svg>
