<?xml version="1.0" standalone="no"?>
<!DOCTYPE svg PUBLIC "-//W3C//DTD SVG 20010904//EN"
 "http://www.w3.org/TR/2001/REC-SVG-20010904/DTD/svg10.dtd">
<svg version="1.0" xmlns="http://www.w3.org/2000/svg"
 width="252.000000pt" height="680.000000pt" viewBox="0 0 252.000000 680.000000"
 preserveAspectRatio="xMidYMid meet">

<g transform="translate(0.000000,680.000000) scale(0.100000,-0.100000)"
fill="#000000" stroke="none">
<path d="M1246 6673 c-3 -3 -6 -16 -6 -29 0 -39 -11 -53 -66 -85 -30 -17 -54
-34 -54 -39 0 -4 20 -11 44 -14 39 -6 47 -12 65 -47 18 -35 20 -45 10 -84 -11
-43 -12 -44 -57 -47 -42 -3 -49 -7 -74 -44 -17 -26 -39 -44 -55 -49 -43 -10
-129 -54 -149 -76 -26 -29 -38 -24 -65 28 -32 58 -51 72 -74 53 -17 -14 -52
-22 -97 -23 -27 0 -38 -19 -19 -31 5 -3 12 -18 15 -32 4 -15 21 -57 38 -93 17
-36 39 -93 48 -126 10 -33 29 -88 44 -122 25 -58 40 -115 52 -188 6 -36 -109
192 -128 253 -12 42 -38 78 -38 53 0 -6 5 -11 10 -11 6 0 10 -13 10 -29 0 -17
5 -33 11 -37 8 -4 9 -26 4 -68 -4 -33 -9 -88 -11 -121 -2 -33 -8 -61 -14 -63
-18 -6 -11 -26 21 -59 41 -44 19 -42 -31 3 -40 36 -54 69 -25 58 8 -4 15 -1
15 6 0 12 -59 92 -72 98 -5 2 -8 11 -8 19 0 9 -6 13 -15 9 -10 -4 -15 1 -15
15 0 12 -6 33 -14 47 -8 15 -24 48 -36 75 -12 26 -28 47 -36 47 -24 0 -16 -45
16 -85 17 -21 30 -46 30 -56 0 -11 5 -19 10 -19 6 0 10 -10 10 -22 0 -13 10
-50 21 -83 11 -34 17 -71 14 -86 -5 -21 -1 -31 16 -42 11 -9 19 -20 15 -25 -3
-5 4 -18 15 -28 17 -16 20 -27 15 -73 -5 -47 -2 -58 19 -83 14 -16 25 -42 25
-57 0 -15 9 -36 20 -46 11 -10 20 -24 20 -31 0 -7 9 -18 20 -24 11 -6 20 -20
20 -30 0 -17 7 -20 49 -20 76 0 111 -10 111 -31 0 -12 7 -19 20 -19 16 0 20
-7 20 -33 0 -18 8 -42 18 -53 9 -11 28 -41 41 -67 19 -37 27 -45 37 -36 11 9
14 6 14 -15 0 -20 8 -29 35 -40 38 -16 39 -18 26 -44 -36 -67 -54 -123 -55
-167 -1 -45 5 -58 53 -129 33 -49 54 -90 53 -105 0 -14 -1 -33 -1 -41 -1 -8 0
-127 2 -263 2 -181 6 -250 15 -256 10 -6 9 -17 -2 -50 -23 -62 -23 -1246 0
-1217 13 18 14 12 12 -60 -1 -43 -3 -62 -5 -41 -6 55 -23 35 -23 -28 0 -51 13
-79 23 -53 10 23 7 -276 -2 -312 -5 -19 -12 -252 -15 -518 -4 -317 -10 -490
-17 -504 -8 -14 -7 -28 1 -48 15 -36 9 -55 -46 -134 -53 -78 -56 -95 -11 -67
19 11 36 18 39 15 3 -2 -3 -21 -13 -42 -11 -20 -19 -51 -19 -68 0 -39 34 -123
57 -139 16 -12 16 -14 0 -38 -16 -25 -23 -57 -12 -57 3 0 23 9 45 20 50 25 50
25 50 -7 -1 -32 -27 -67 -57 -77 -12 -4 -27 -13 -33 -21 -10 -13 -8 -15 12
-15 32 0 53 -24 68 -77 14 -46 24 -48 33 -6 8 41 28 62 70 77 l39 13 -35 20
c-26 16 -36 30 -41 58 -4 20 -5 40 -1 43 3 3 21 -2 40 -13 43 -22 54 -14 32
24 -23 39 -22 50 8 73 13 10 30 36 36 58 10 33 9 47 -12 105 -19 55 -21 68 -9
75 9 6 23 2 41 -11 27 -19 49 -25 49 -12 0 3 -17 29 -38 57 -41 54 -64 113
-66 168 -1 18 -7 43 -14 56 -8 14 -12 47 -10 85 2 34 -1 202 -6 374 -6 213 -5
327 2 360 7 30 13 389 18 973 4 509 8 999 10 1090 1 91 3 219 4 285 1 66 -1
127 -5 136 -4 10 14 58 44 122 28 57 51 109 51 115 0 19 -34 117 -52 150 -25
45 -23 59 11 76 32 17 41 34 41 77 0 41 17 71 39 67 23 -4 71 36 71 60 0 10 9
31 21 46 17 22 28 26 70 26 61 0 87 16 119 75 13 25 30 45 37 45 6 0 15 10 19
22 4 13 16 35 27 51 16 20 22 45 24 93 1 43 7 72 17 83 9 10 16 24 16 32 0 8
9 32 21 53 34 63 140 337 137 352 -2 10 -12 7 -35 -12 -27 -21 -33 -32 -33
-65 0 -47 -66 -187 -127 -269 -47 -64 -52 -69 -116 -104 -46 -26 -48 -26 -99
-11 -28 8 -64 15 -79 15 -32 0 -99 29 -99 43 0 10 61 -1 74 -14 15 -13 171
-11 203 3 15 7 40 25 56 40 26 26 27 30 27 137 0 60 -4 121 -10 135 -7 18 -4
39 9 78 26 76 33 111 23 104 -5 -3 -17 -29 -26 -58 -18 -58 -19 -59 -69 -168
-19 -41 -40 -93 -47 -115 -7 -22 -15 -34 -18 -27 -2 8 0 24 6 35 15 32 23 57
33 100 5 20 13 54 18 75 11 45 38 122 63 178 10 22 18 46 18 52 0 7 4 20 9 30
6 9 12 28 15 42 3 14 10 32 16 40 9 13 11 13 20 0 8 -12 10 -11 10 7 0 17 -10
25 -48 37 -27 9 -56 14 -66 10 -9 -3 -23 -1 -31 6 -20 17 -54 -6 -80 -54 -19
-35 -38 -45 -49 -27 -12 20 -114 80 -152 90 -32 9 -42 17 -53 46 -16 44 -38
56 -99 54 -54 -2 -72 5 -72 27 0 8 -5 22 -11 32 -18 29 14 88 61 112 22 11 40
22 40 25 0 3 -24 17 -52 31 -60 30 -68 39 -68 76 0 27 -12 43 -24 31z m24
-109 c0 -8 -32 -33 -42 -34 -4 0 0 9 9 20 17 20 33 26 33 14z m25 -234 c-3 -5
-10 -10 -16 -10 -5 0 -9 5 -9 10 0 6 7 10 16 10 8 0 12 -4 9 -10z m154 -63
c16 -44 -8 -347 -29 -372 -4 -5 -10 -23 -13 -40 -3 -16 -3 -10 -1 15 8 80 7
293 -1 374 l-8 78 21 -13 c12 -8 26 -26 31 -42z m-278 19 c-6 -8 -11 -18 -10
-22 1 -5 -1 -17 -6 -27 -4 -10 -3 -28 3 -40 11 -23 38 -304 30 -312 -15 -15
-51 147 -65 287 -7 79 8 128 39 128 16 0 18 -3 9 -14z m124 -15 c-9 -16 -25
-3 -18 15 4 10 9 12 15 6 6 -6 7 -15 3 -21z m13 -39 c2 -7 -3 -12 -12 -12 -9
0 -16 7 -16 16 0 17 22 14 28 -4z m-509 -62 c36 -25 205 -430 187 -447 -13
-13 -33 9 -45 48 -7 24 -24 62 -36 84 -13 22 -35 74 -49 115 -14 41 -36 106
-51 145 -14 38 -24 77 -24 85 1 9 3 7 6 -5 3 -11 9 -22 12 -25z m570 -2 c0
-27 -2 -29 -8 -13 -5 11 -6 26 -4 33 8 21 13 13 12 -20z m435 -14 c-3 -25 -33
-99 -65 -165 -33 -66 -59 -122 -59 -125 0 -3 -9 -19 -21 -35 -11 -16 -28 -51
-38 -78 -18 -52 -37 -81 -53 -81 -13 0 -4 49 18 98 30 68 113 236 155 312 23
41 42 85 42 97 0 13 6 23 14 23 11 0 13 -9 7 -46z m-1074 20 c0 -8 -5 -12 -10
-9 -6 4 -8 11 -5 16 9 14 15 11 15 -7z m1150 6 c0 -5 -4 -10 -10 -10 -5 0 -10
5 -10 10 0 6 5 10 10 10 6 0 10 -4 10 -10z m-580 -15 c0 -8 -4 -15 -10 -15 -5
0 -10 7 -10 15 0 8 5 15 10 15 6 0 10 -7 10 -15z m-546 -44 c4 -5 3 -16 0 -25
-5 -13 -9 -14 -20 -5 -8 6 -14 18 -14 25 0 16 26 19 34 5z m543 -17 c-9 -9
-28 6 -21 18 4 6 10 6 17 -1 6 -6 8 -13 4 -17z m-287 12 c0 -3 -4 -8 -10 -11
-5 -3 -10 -1 -10 4 0 6 5 11 10 11 6 0 10 -2 10 -4z m-235 -64 c0 -18 -20 -15
-23 4 -3 10 1 15 10 12 7 -3 13 -10 13 -16z m520 -52 c7 -33 1 -50 -21 -50
-10 0 -14 12 -14 40 0 48 25 56 35 10z m-495 -4 c0 -14 5 -28 10 -31 12 -8 13
-52 1 -59 -5 -3 -14 9 -21 27 -6 17 -15 39 -20 48 -5 10 -4 21 3 28 18 18 27
13 27 -13z m1007 -7 c6 -6 9 -17 6 -25 -7 -18 -33 -5 -33 17 0 21 11 24 27 8z
m-9 -92 c2 -12 -3 -17 -17 -17 -15 0 -21 6 -21 21 0 25 33 22 38 -4z m-500
-25 c2 -11 -6 -30 -17 -41 -23 -23 -25 -16 -15 38 7 35 27 37 32 3z m475 -27
c7 -17 -8 -29 -28 -21 -17 6 -9 36 10 36 7 0 15 -7 18 -15z m-886 -32 c3 -8 0
-19 -8 -24 -16 -10 -39 15 -39 43 0 16 3 17 21 8 11 -6 23 -18 26 -27z m533
-220 c0 -2 -4 -3 -10 -3 -5 0 -10 7 -10 15 0 8 -3 15 -7 15 -22 0 -93 148 -93
195 0 14 119 -207 120 -222z m-33 190 c-3 -10 -5 -4 -5 12 0 17 2 24 5 18 2
-7 2 -21 0 -30z m-140 -32 c-6 -14 -16 -31 -21 -36 -14 -13 -34 -44 -45 -72
-6 -11 -15 -24 -21 -28 -6 -4 -15 -18 -20 -31 -5 -13 -17 -24 -26 -24 -8 0
-14 -5 -12 -12 6 -18 -40 -61 -82 -76 -53 -19 -187 -13 -232 9 -21 11 -38 24
-38 29 0 14 4 13 45 -10 20 -11 50 -20 67 -20 52 0 178 34 178 48 0 6 4 12 9
12 12 0 21 10 91 89 58 66 100 133 100 160 0 13 2 13 9 2 6 -9 5 -24 -2 -40z
m493 24 c0 -8 -9 -19 -20 -25 -23 -12 -24 -11 -10 25 10 26 30 26 30 0z m-840
-37 c0 -12 9 -32 21 -44 14 -15 19 -29 14 -43 -10 -31 -35 -14 -35 24 0 24 -5
34 -20 38 -12 3 -20 14 -20 26 0 14 6 21 20 21 14 0 20 -7 20 -22z m798 -30
c-7 -19 -38 -22 -38 -4 0 10 9 16 21 16 12 0 19 -5 17 -12z m-425 -106 c4 -80
3 -92 -12 -92 -9 0 -23 5 -31 10 -13 8 -13 13 -2 30 7 12 10 30 6 42 -5 17 23
114 31 106 2 -2 6 -45 8 -96z m-643 24 c0 -3 -7 -3 -15 0 -8 4 -15 13 -15 21
0 12 2 12 15 -1 8 -8 15 -17 15 -20z m718 -16 c18 -36 18 -41 3 -53 -25 -21
-49 -27 -54 -13 -9 23 5 106 18 106 7 0 22 -18 33 -40z m122 -60 c0 -5 -2 -10
-4 -10 -3 0 -8 5 -11 10 -3 6 -1 10 4 10 6 0 11 -4 11 -10z m25 -30 c3 -5 1
-10 -4 -10 -6 0 -11 5 -11 10 0 6 2 10 4 10 3 0 8 -4 11 -10z m-175 -24 c0
-11 -19 -15 -25 -6 -3 5 1 10 9 10 9 0 16 -2 16 -4z m210 -55 c36 -6 90 -13
121 -16 31 -2 68 -9 83 -15 15 -5 42 -10 60 -10 21 0 40 -8 52 -21 l19 -21
-55 6 c-30 4 -80 9 -110 12 -54 5 -55 5 -33 -13 39 -31 78 -123 53 -123 -5 0
-10 -4 -10 -10 0 -5 7 -10 15 -10 8 0 15 -4 15 -10 0 -5 -7 -10 -15 -10 -8 0
-15 4 -15 9 0 6 -22 9 -50 9 -40 -1 -50 -5 -50 -19 0 -9 -10 -19 -22 -23 -35
-9 -6 -30 44 -32 24 -1 51 -2 61 -3 9 -1 17 -4 17 -8 0 -13 -488 -15 -605 -3
-148 16 -172 33 -35 25 217 -14 450 -15 468 -4 11 7 18 23 18 44 0 38 21 70
38 57 25 -20 63 -22 85 -3 27 23 27 38 -1 62 -28 23 -54 24 -75 3 -13 -12 -18
-13 -24 -3 -4 8 -11 10 -15 6 -4 -4 -2 -13 4 -19 19 -19 14 -24 -23 -25 -37
-1 -46 10 -18 25 9 5 17 18 18 28 4 33 17 54 33 54 12 0 13 3 4 12 -13 13
-391 17 -692 7 -144 -4 -145 -4 -148 19 -3 21 0 22 70 24 40 1 87 1 103 0 62
-4 252 0 310 6 80 10 225 6 305 -7z m-500 -70 c0 -6 -4 -12 -9 -15 -4 -3 -6
-16 -4 -30 3 -13 0 -32 -6 -43 -9 -15 -10 -13 -11 15 0 20 -6 35 -15 38 -8 4
-15 12 -15 19 0 12 9 16 53 24 4 0 7 -3 7 -8z m285 -13 c51 -34 48 -51 -4 -24
-31 17 -63 12 -103 -16 -14 -10 -30 -18 -36 -18 -5 0 -15 -7 -22 -15 -10 -12
-9 -16 6 -22 24 -9 48 -32 41 -39 -5 -6 -41 12 -69 35 -10 8 -27 11 -43 7 -14
-4 -25 -4 -25 -2 0 3 21 26 47 51 37 37 51 45 72 41 14 -3 37 1 51 9 34 20 45
19 85 -7z m72 0 c-3 -8 -6 -5 -6 6 -1 11 2 17 5 13 3 -3 4 -12 1 -19z m123 -3
c0 -9 -6 -12 -15 -9 -8 4 -12 10 -9 15 8 14 24 10 24 -6z m-747 -29 c4 -10 1
-13 -9 -9 -7 3 -14 9 -14 14 0 14 17 10 23 -5z m117 9 c0 -3 -11 -17 -25 -31
-28 -28 -55 -26 -54 3 0 11 3 13 6 6 7 -19 27 -16 43 7 14 19 30 27 30 15z
m410 -37 c19 -24 16 -48 -6 -48 -18 0 -36 34 -28 54 8 21 12 20 34 -6z m478 5
c-5 -25 -28 -28 -28 -4 0 12 6 21 16 21 9 0 14 -7 12 -17z m87 7 c-3 -5 -17
-10 -31 -10 -13 0 -24 5 -24 10 0 6 14 10 31 10 17 0 28 -4 24 -10z m-1100
-49 c-9 -16 -25 -3 -18 15 4 10 9 12 15 6 6 -6 7 -15 3 -21z m727 5 c10 -15 2
-20 -19 -11 -25 11 -37 8 -93 -25 -55 -32 -62 -31 -27 4 47 49 117 66 139 32z
m358 -4 c0 -13 -12 -22 -22 -16 -10 6 -1 24 13 24 5 0 9 -4 9 -8z m-887 -42
c3 -14 14 -20 34 -21 25 -1 24 -2 -10 -10 -58 -14 -101 16 -59 40 24 15 29 14
35 -9z m264 -20 c8 0 11 -5 8 -10 -5 -9 -84 -8 -115 0 -18 5 41 18 64 15 16
-3 35 -5 43 -5z m93 -10 c0 -5 -7 -10 -15 -10 -8 0 -15 5 -15 10 0 6 7 10 15
10 8 0 15 -4 15 -10z m-403 -14 c4 -8 19 -16 33 -19 14 -3 -13 -3 -60 0 -95 5
-122 15 -70 24 61 11 89 9 97 -5z m63 -86 c0 -5 -2 -10 -4 -10 -3 0 -8 5 -11
10 -3 6 -1 10 4 10 6 0 11 -4 11 -10z m627 -16 c-9 -9 -28 6 -21 18 4 6 10 6
17 -1 6 -6 8 -13 4 -17z m-193 -219 c-7 -16 -24 -21 -24 -6 0 8 7 13 27 20 1
1 0 -6 -3 -14z m-144 -5 c0 -5 -4 -10 -10 -10 -5 0 -10 5 -10 10 0 6 5 10 10
10 6 0 10 -4 10 -10z m83 -6 c9 -4 17 -10 17 -15 0 -13 -34 -11 -48 3 -16 16
-15 31 1 24 6 -3 20 -9 30 -12z m-153 -10 c0 -8 -5 -12 -10 -9 -6 4 -8 11 -5
16 9 14 15 11 15 -7z m0 -69 c0 -8 -4 -15 -10 -15 -5 0 -10 -6 -10 -14 0 -8
-7 -16 -15 -20 -19 -7 -19 -6 1 32 16 34 34 42 34 17z m208 -17 c7 -7 12 -21
12 -32 -1 -20 -1 -20 -20 3 -29 34 -22 59 8 29z m-75 -76 c30 -66 33 -88 12
-116 -14 -19 -15 -19 -15 8 0 33 -18 115 -31 138 -11 21 -11 28 -1 28 4 0 19
-26 35 -58z m117 -8 c0 -8 -4 -12 -10 -9 -5 3 -10 13 -10 21 0 8 5 12 10 9 6
-3 10 -13 10 -21z m-196 -38 c4 -19 1 -55 -5 -80 l-11 -46 -19 34 c-18 33 -18
37 -2 80 10 26 20 46 24 46 4 0 10 -15 13 -34z m196 -10 c0 -3 -4 -8 -10 -11
-5 -3 -10 -1 -10 4 0 6 5 11 10 11 6 0 10 -2 10 -4z m-313 -48 c-3 -7 -5 -2
-5 12 0 14 2 19 5 13 2 -7 2 -19 0 -25z m197 -1030 c-9 -14 -23 2 -17 18 4 12
8 13 14 3 4 -7 5 -17 3 -21z m7 -53 c-1 -15 -24 -12 -29 3 -3 9 2 13 12 10 10
-1 17 -7 17 -13z m-61 -119 c0 -6 -7 -1 -15 10 -8 10 -15 23 -15 28 0 6 7 1
15 -10 8 -10 15 -23 15 -28z m0 -103 c0 -42 -2 -74 -5 -72 -7 7 -15 131 -9
141 11 18 14 5 14 -69z m59 -36 l-1 -42 -12 40 c-13 41 -11 60 5 50 5 -4 9
-25 8 -48z m11 -71 c0 -14 -4 -28 -10 -31 -6 -4 -10 7 -10 24 0 17 5 31 10 31
6 0 10 -11 10 -24z m-73 -43 c-3 -10 -5 -4 -5 12 0 17 2 24 5 18 2 -7 2 -21 0
-30z m53 -23 c0 -5 -5 -10 -11 -10 -5 0 -7 5 -4 10 3 6 8 10 11 10 2 0 4 -4 4
-10z m-50 -56 c0 -8 -4 -12 -10 -9 -5 3 -10 10 -10 16 0 5 5 9 10 9 6 0 10 -7
10 -16z m37 -156 c-3 -8 -6 -5 -6 6 -1 11 2 17 5 13 3 -3 4 -12 1 -19z m-87
-22 c0 -8 -4 -18 -10 -21 -5 -3 -10 3 -10 14 0 12 5 21 10 21 6 0 10 -6 10
-14z m47 -8 c-3 -8 -6 -5 -6 6 -1 11 2 17 5 13 3 -3 4 -12 1 -19z m42 -1085
c-2 -96 -3 -107 -8 -58 -6 57 -3 175 5 175 2 0 3 -53 3 -117z m-58 -62 c-8
-22 -9 -19 -10 24 0 42 2 46 10 26 6 -15 6 -34 0 -50z m59 -403 c0 -23 -3 -29
-11 -21 -6 6 -8 20 -4 32 9 30 15 26 15 -11z m-3 -210 c-3 -8 -6 -5 -6 6 -1
11 2 17 5 13 3 -3 4 -12 1 -19z m73 -84 c0 -8 -4 -14 -10 -14 -5 0 -10 9 -10
21 0 11 5 17 10 14 6 -3 10 -13 10 -21z m-170 -20 c0 -8 -4 -12 -10 -9 -5 3
-10 10 -10 16 0 5 5 9 10 9 6 0 10 -7 10 -16z m170 -65 c0 -5 -4 -9 -10 -9 -5
0 -10 7 -10 16 0 8 5 12 10 9 6 -3 10 -10 10 -16z m-130 -89 c0 -23 -4 -24
-32 -9 -17 9 -18 13 -7 20 23 15 39 10 39 -11z m110 -5 c0 -8 -6 -15 -14 -15
-17 0 -28 14 -19 24 12 12 33 6 33 -9z m-60 -444 c0 -5 -7 -14 -15 -21 -16
-14 -18 -10 -9 14 6 17 24 22 24 7z"/>
</g>
</svg>
